<svg width="699.305029296875px" height="236px" xmlns="http://www.w3.org/2000/svg" viewBox="-99.65251464843749 -43 699.305029296875 236" style="background: rgba(0, 0, 0, 0);" preserveAspectRatio="xMidYMid"><defs>
  <filter id="editing-scratch" x="-100%" y="-100%" width="300%" height="300%">
    <!-- COLOR -->
    <feFlood flood-color="#ddd" flood-opacity="0.75" result="COLOR-blu"></feFlood>
    <feFlood flood-color="#666" flood-opacity="0.4" result="COLOR-red"></feFlood>
    <!-- COLOR END -->

    <!-- Texture -->
    <feTurbulence baseFrequency=".05" type="fractalNoise" numOctaves="3" seed="0" result="Texture_10"></feTurbulence>
    <feColorMatrix type="matrix" values="0 0 0 0 0,
    0 0 0 0 0,
    0 0 0 0 0,
    0 0 0 -2.1 1.1" in="Texture_10" result="Texture_20"></feColorMatrix>

    <feColorMatrix result="Texture_30" type="matrix" values="0 0 0 0 0,
    0 0 0 0 0,
    0 0 0 0 0,
    0 0 0 -1.7 1.8" in="Texture_10"></feColorMatrix>
    <!-- Texture -->

    <!-- FILL -->
    <feOffset dx="-3" dy="4" in="SourceAlpha" result="FILL_10"></feOffset>
    <feDisplacementMap scale="17" in="FILL_10" in2="Texture_10" result="FILL_20"></feDisplacementMap>
    <feComposite operator="in" in="Texture_30" in2="FILL_20" result="FILL_40"></feComposite>
    <feComposite operator="in" in="COLOR-blu" in2="FILL_40" result="FILL_50"></feComposite>
    <!-- FILL END-->

    <!-- OUTLINE -->
    <feMorphology operator="dilate" radius="3" in="SourceGraphic" result="OUTLINE_10"></feMorphology>
    <feComposite operator="out" in="OUTLINE_10" in2="SourceGraphic" result="OUTLINE_20"></feComposite>
    <feDisplacementMap scale="7" in="OUTLINE_20" in2="Texture_10" result="OUTLINE_30"></feDisplacementMap>
    <feComposite operator="arithmetic" k2="-1" k3="1" in="Texture_20" in2="OUTLINE_30" result="OUTLINE_40"></feComposite>
    <!-- OUTLINE END-->

    <!-- BEVEL OUTLINE -->
    <feConvolveMatrix order="8,8" divisor="1" kernelMatrix="1 0 0 0 0 0 0 0 0 1 0 0 0 0 0 0 0 0 1 0 0 0 0 0 0 0 0 1 0 0 0 0 0 0 0 0 1 0 0 0 0 0 0 0 0 1 0 0 0 0 0 0 0 0 1 0 0 0 0 0 0 0 0 1 " in="SourceGraphic" result="BEVEL_10"></feConvolveMatrix>
    <feMorphology operator="dilate" radius="2" in="BEVEL_10" result="BEVEL_20"></feMorphology>
    <feComposite operator="out" in="BEVEL_20" in2="BEVEL_10" result="BEVEL_30"></feComposite>
    <feDisplacementMap scale="7" in="BEVEL_30" in2="Texture_10" result="BEVEL_40"></feDisplacementMap>
    <feComposite operator="arithmetic" k2="-1" k3="1" in="Texture_20" in2="BEVEL_40" result="BEVEL_50"></feComposite>
    <feOffset dx="-7" dy="-7" in="BEVEL_50" result="BEVEL_60"></feOffset>
    <feComposite operator="out" in="BEVEL_60" in2="OUTLINE_10" result="BEVEL_70"></feComposite>
    <!-- BEVEL OUTLINE END -->

    <!-- BEVEL FILL -->
    <feOffset dx="-9" dy="-9" in="BEVEL_10" result="BEVEL-FILL_10"></feOffset>
    <feComposite operator="out" in="BEVEL-FILL_10" in2="OUTLINE_10" result="BEVEL-FILL_20"></feComposite>
    <feDisplacementMap scale="17" in="BEVEL-FILL_20" in2="Texture_10" result="BEVEL-FILL_30"></feDisplacementMap>
    <feComposite operator="in" in="COLOR-red" in2="BEVEL-FILL_30" result="BEVEL-FILL_50"></feComposite> <!-- -->
    <!-- BEVEL FILL END-->

    <feMerge result="merge2">
     <feMergeNode in="BEVEL-FILL_50"></feMergeNode>
     <feMergeNode in="BEVEL_70"></feMergeNode>
     <feMergeNode in="FILL_50"></feMergeNode>
      <feMergeNode in="OUTLINE_40"></feMergeNode>
    </feMerge>
  </filter>
</defs>
<g filter="url(#editing-scratch)"><g transform="translate(-0.09497317671775818, 120.93500661849976)"><path d="M69.14-71.22L69.14-90.25L107.18-90.25L107.18-71.22L101.38-71.22L101.38 0L68.79 0L34.80-52.32L34.80-19.02L40.37-19.02L40.37 0L2.32 0L2.32-19.02L8.12-19.02L8.12-71.22L2.32-71.22L2.32-90.25L44.20-90.25L74.70-43.73L74.70-71.22L69.14-71.22ZM173.88-19.02L178.99-19.02L178.99 0L148.36 0L148.36-7.89L148.36-7.89Q145.81-4.18 141.23-1.28L141.23-1.28L141.23-1.28Q136.65 1.62 130.04 1.62L130.04 1.62L130.04 1.62Q121.34 1.62 116.35-3.02L116.35-3.02L116.35-3.02Q111.36-7.66 111.36-16.12L111.36-16.12L111.36-16.12Q111.36-38.05 148.60-38.63L148.60-38.63L148.60-38.63Q148.25-42.57 145.58-44.02L145.58-44.02L145.58-44.02Q142.91-45.47 136.53-45.47L136.53-45.47L136.53-45.47Q131.31-45.47 125.34-44.37L125.34-44.37L125.34-44.37Q119.36-43.27 114.38-41.41L114.38-41.41L114.38-62.76L114.38-62.76Q120.52-64.26 127.72-65.19L127.72-65.19L127.72-65.19Q134.91-66.12 141.75-66.12L141.75-66.12L141.75-66.12Q159.04-66.12 166.46-59.86L166.46-59.86L166.46-59.86Q173.88-53.59 173.88-40.48L173.88-40.48L173.88-19.02ZM148.36-26.45L148.36-27.14L148.36-27.14Q143.14-27.14 140.30-25.75L140.30-25.75L140.30-25.75Q137.46-24.36 137.46-21.11L137.46-21.11L137.46-21.11Q137.46-19.14 138.68-17.92L138.68-17.92L138.68-17.92Q139.90-16.70 142.10-16.70L142.10-16.70L142.10-16.70Q145.12-16.70 146.74-19.26L146.74-19.26L146.74-19.26Q148.36-21.81 148.36-26.45L148.36-26.45ZM210.89 1.62L210.89 1.62Q196.27 1.62 182.70-3.02L182.70-3.02L182.70-20.18L201.49-20.18L201.49-19.02L201.49-19.02Q201.49-13.46 208.57-13.46L208.57-13.46L208.57-13.46Q214.83-13.46 214.83-17.75L214.83-17.75L214.83-17.75Q214.83-20.07 213.03-21.23L213.03-21.23L213.03-21.23Q211.24-22.39 206.71-23.20L206.71-23.20L200.91-24.24L200.91-24.24Q182.70-27.49 182.70-44.89L182.70-44.89L182.70-44.89Q182.70-54.98 190.36-60.55L190.36-60.55L190.36-60.55Q198.01-66.12 211.00-66.12L211.00-66.12L211.00-66.12Q225.50-66.12 235.48-61.25L235.48-61.25L235.48-45.12L217.85-45.12L217.85-46.28L217.85-46.28Q217.85-48.60 216.28-49.82L216.28-49.82L216.28-49.82Q214.72-51.04 211.70-51.04L211.70-51.04L211.70-51.04Q205.90-51.04 205.90-47.33L205.90-47.33L205.90-47.33Q205.90-45.36 207.52-44.31L207.52-44.31L207.52-44.31Q209.15-43.27 213.44-42.34L213.44-42.34L220.05-41.06L220.05-41.06Q230.38-39.09 234.78-33.76L234.78-33.76L234.78-33.76Q239.19-28.42 239.19-20.07L239.19-20.07L239.19-20.07Q239.19-9.51 231.83-3.94L231.83-3.94L231.83-3.94Q224.46 1.62 210.89 1.62L210.89 1.62ZM277.47 1.62L277.47 1.62Q261.00 1.62 251.72-7.02L251.72-7.02L251.72-7.02Q242.44-15.66 242.44-32.25L242.44-32.25L242.44-32.25Q242.44-48.84 251.72-57.48L251.72-57.48L251.72-57.48Q261.00-66.12 277.47-66.12L277.47-66.12L277.47-66.12Q293.83-66.12 301.08-57.59L301.08-57.59L301.08-57.59Q308.33-49.07 308.33-36.42L308.33-36.42L308.33-28.07L270.74-28.07L270.74-27.38L270.74-27.38Q270.74-23.08 273.30-21.05L273.30-21.05L273.30-21.05Q275.85-19.02 281.76-19.02L281.76-19.02L281.76-19.02Q288.84-19.02 295.22-20.07L295.22-20.07L295.22-20.07Q301.60-21.11 306.36-22.74L306.36-22.74L306.36-4.18L306.36-4.18Q302.30-1.97 294.47-0.17L294.47-0.17L294.47-0.17Q286.64 1.62 277.47 1.62L277.47 1.62ZM270.74-40.83L284.20-40.83L284.20-42.22L284.20-42.22Q284.20-46.17 282.52-47.91L282.52-47.91L282.52-47.91Q280.84-49.65 277.47-49.65L277.47-49.65L277.47-49.65Q274.11-49.65 272.43-47.85L272.43-47.85L272.43-47.85Q270.74-46.05 270.74-42.22L270.74-42.22L270.74-40.83ZM346.38 1.62L346.38 1.62Q329.90 1.62 320.62-7.02L320.62-7.02L320.62-7.02Q311.34-15.66 311.34-32.25L311.34-32.25L311.34-32.25Q311.34-48.84 320.62-57.48L320.62-57.48L320.62-57.48Q329.90-66.12 346.38-66.12L346.38-66.12L346.38-66.12Q362.73-66.12 369.98-57.59L369.98-57.59L369.98-57.59Q377.23-49.07 377.23-36.42L377.23-36.42L377.23-28.07L339.65-28.07L339.65-27.38L339.65-27.38Q339.65-23.08 342.20-21.05L342.20-21.05L342.20-21.05Q344.75-19.02 350.67-19.02L350.67-19.02L350.67-19.02Q357.74-19.02 364.12-20.07L364.12-20.07L364.12-20.07Q370.50-21.11 375.26-22.74L375.26-22.74L375.26-4.18L375.26-4.18Q371.20-1.97 363.37-0.17L363.37-0.17L363.37-0.17Q355.54 1.62 346.38 1.62L346.38 1.62ZM339.65-40.83L353.10-40.83L353.10-42.22L353.10-42.22Q353.10-46.17 351.42-47.91L351.42-47.91L351.42-47.91Q349.74-49.65 346.38-49.65L346.38-49.65L346.38-49.65Q343.01-49.65 341.33-47.85L341.33-47.85L341.33-47.85Q339.65-46.05 339.65-42.22L339.65-42.22L339.65-40.83ZM492.77-19.02L497.87-19.02L497.87 0L461.22 0L461.22-19.02L466.09-19.02L466.09-38.05L466.09-38.05Q466.09-41.88 464.46-43.67L464.46-43.67L464.46-43.67Q462.84-45.47 459.59-45.47L459.59-45.47L459.59-45.47Q452.63-45.47 452.63-38.05L452.63-38.05L452.63-19.02L457.50-19.02L457.50 0L421.08 0L421.08-19.02L425.95-19.02L425.95-38.05L425.95-38.05Q425.95-41.88 424.33-43.67L424.33-43.67L424.33-43.67Q422.70-45.47 419.46-45.47L419.46-45.47L419.46-45.47Q412.50-45.47 412.50-38.05L412.50-38.05L412.50-19.02L417.37-19.02L417.37 0L380.71 0L380.71-19.02L385.82-19.02L385.82-45.47L380.71-45.47L380.71-64.50L412.50-64.50L412.50-55.45L412.50-55.45Q420.85-66.12 433.38-66.12L433.38-66.12L433.38-66.12Q440.45-66.12 444.92-62.81L444.92-62.81L444.92-62.81Q449.38-59.51 451.24-53.48L451.24-53.48L451.24-53.48Q455.42-59.51 460.81-62.76L460.81-62.76L460.81-62.76Q466.20-66.00 473.51-66.00L473.51-66.00L473.51-66.00Q483.14-66.00 487.95-59.97L487.95-59.97L487.95-59.97Q492.77-53.94 492.77-43.38L492.77-43.38L492.77-19.02Z" fill="#000"></path></g></g><style>text {
  font-size: 64px;
  font-family: Arial Black;
  dominant-baseline: central;
  text-anchor: middle;
}</style></svg>