<svg width="394.775px" height="139.04000549316407px" xmlns="http://www.w3.org/2000/svg" viewBox="52.61250000000001 5.479997253417963 394.775 139.04000549316407" style="background: rgba(0, 0, 0, 0);" preserveAspectRatio="xMidYMid"><defs><filter id="editing-vr"><feFlood flood-color="#f00" flood-opacity="0.7" result="c1"></feFlood><feFlood flood-color="#00f" flood-opacity="0.7" result="c3"></feFlood><feComposite operator="in" in="c1" in2="SourceAlpha" result="text-c1"></feComposite><feComposite operator="in" in="c3" in2="SourceAlpha" result="text-c3"></feComposite><feOffset in="text-c1" dx="5" dy="-1" result="text1"></feOffset><feOffset in="text-c3" dx="-5" dy="1" result="text3"></feOffset><feBlend in="SourceGraphic" in2="text1" mode="multiply" result="text4"></feBlend><feBlend in="text4" in2="text3" mode="multiply"></feBlend></filter></defs><g filter="url(#editing-vr)"><g transform="translate(112.0150134563446, 100.34500312805176)"><path d="M38.14-39.30L38.14-49.79L59.14-49.79L59.14-39.30L55.94-39.30L55.94 0L37.95 0L19.20-28.86L19.20-10.50L22.27-10.50L22.27 0L1.28 0L1.28-10.50L4.48-10.50L4.48-39.30L1.28-39.30L1.28-49.79L24.38-49.79L41.22-24.13L41.22-39.30L38.14-39.30ZM95.94-10.50L98.75-10.50L98.75 0L81.86 0L81.86-4.35L81.86-4.35Q80.45-2.30 77.92-0.70L77.92-0.70L77.92-0.70Q75.39 0.90 71.74 0.90L71.74 0.90L71.74 0.90Q66.94 0.90 64.19-1.66L64.19-1.66L64.19-1.66Q61.44-4.22 61.44-8.90L61.44-8.90L61.44-8.90Q61.44-20.99 81.98-21.31L81.98-21.31L81.98-21.31Q81.79-23.49 80.32-24.29L80.32-24.29L80.32-24.29Q78.85-25.09 75.33-25.09L75.33-25.09L75.33-25.09Q72.45-25.09 69.15-24.48L69.15-24.48L69.15-24.48Q65.86-23.87 63.10-22.85L63.10-22.85L63.10-34.62L63.10-34.62Q66.50-35.46 70.46-35.97L70.46-35.97L70.46-35.97Q74.43-36.48 78.21-36.48L78.21-36.48L78.21-36.48Q87.74-36.48 91.84-33.02L91.84-33.02L91.84-33.02Q95.94-29.57 95.94-22.34L95.94-22.34L95.94-10.50ZM81.86-14.59L81.86-14.98L81.86-14.98Q78.98-14.98 77.41-14.21L77.41-14.21L77.41-14.21Q75.84-13.44 75.84-11.65L75.84-11.65L75.84-11.65Q75.84-10.56 76.51-9.89L76.51-9.89L76.51-9.89Q77.18-9.22 78.40-9.22L78.40-9.22L78.40-9.22Q80.06-9.22 80.96-10.62L80.96-10.62L80.96-10.62Q81.86-12.03 81.86-14.59L81.86-14.59ZM116.35 0.90L116.35 0.90Q108.29 0.90 100.80-1.66L100.80-1.66L100.80-11.14L111.17-11.14L111.17-10.50L111.17-10.50Q111.17-7.42 115.07-7.42L115.07-7.42L115.07-7.42Q118.53-7.42 118.53-9.79L118.53-9.79L118.53-9.79Q118.53-11.07 117.54-11.71L117.54-11.71L117.54-11.71Q116.54-12.35 114.05-12.80L114.05-12.80L110.85-13.38L110.85-13.38Q100.80-15.17 100.80-24.77L100.80-24.77L100.80-24.77Q100.80-30.34 105.02-33.41L105.02-33.41L105.02-33.41Q109.25-36.48 116.42-36.48L116.42-36.48L116.42-36.48Q124.42-36.48 129.92-33.79L129.92-33.79L129.92-24.90L120.19-24.90L120.19-25.54L120.19-25.54Q120.19-26.82 119.33-27.49L119.33-27.49L119.33-27.49Q118.46-28.16 116.80-28.16L116.80-28.16L116.80-28.16Q113.60-28.16 113.60-26.11L113.60-26.11L113.60-26.11Q113.60-25.02 114.50-24.45L114.50-24.45L114.50-24.45Q115.39-23.87 117.76-23.36L117.76-23.36L121.41-22.66L121.41-22.66Q127.10-21.57 129.54-18.62L129.54-18.62L129.54-18.62Q131.97-15.68 131.97-11.07L131.97-11.07L131.97-11.07Q131.97-5.25 127.90-2.18L127.90-2.18L127.90-2.18Q123.84 0.90 116.35 0.90L116.35 0.90ZM153.09 0.90L153.09 0.90Q144 0.90 138.88-3.87L138.88-3.87L138.88-3.87Q133.76-8.64 133.76-17.79L133.76-17.79L133.76-17.79Q133.76-26.94 138.88-31.71L138.88-31.71L138.88-31.71Q144-36.48 153.09-36.48L153.09-36.48L153.09-36.48Q162.11-36.48 166.11-31.78L166.11-31.78L166.11-31.78Q170.11-27.07 170.11-20.10L170.11-20.10L170.11-15.49L149.38-15.49L149.38-15.10L149.38-15.10Q149.38-12.74 150.78-11.62L150.78-11.62L150.78-11.62Q152.19-10.50 155.46-10.50L155.46-10.50L155.46-10.50Q159.36-10.50 162.88-11.07L162.88-11.07L162.88-11.07Q166.40-11.65 169.02-12.54L169.02-12.54L169.02-2.30L169.02-2.30Q166.78-1.09 162.46-0.10L162.46-0.10L162.46-0.10Q158.14 0.90 153.09 0.90L153.09 0.90ZM149.38-22.53L156.80-22.53L156.80-23.30L156.80-23.30Q156.80-25.47 155.87-26.43L155.87-26.43L155.87-26.43Q154.94-27.39 153.09-27.39L153.09-27.39L153.09-27.39Q151.23-27.39 150.30-26.40L150.30-26.40L150.30-26.40Q149.38-25.41 149.38-23.30L149.38-23.30L149.38-22.53ZM191.10 0.90L191.10 0.90Q182.02 0.90 176.90-3.87L176.90-3.87L176.90-3.87Q171.78-8.64 171.78-17.79L171.78-17.79L171.78-17.79Q171.78-26.94 176.90-31.71L176.90-31.71L176.90-31.71Q182.02-36.48 191.10-36.48L191.10-36.48L191.10-36.48Q200.13-36.48 204.13-31.78L204.13-31.78L204.13-31.78Q208.13-27.07 208.13-20.10L208.13-20.10L208.13-15.49L187.39-15.49L187.39-15.10L187.39-15.10Q187.39-12.74 188.80-11.62L188.80-11.62L188.80-11.62Q190.21-10.50 193.47-10.50L193.47-10.50L193.47-10.50Q197.38-10.50 200.90-11.07L200.90-11.07L200.90-11.07Q204.42-11.65 207.04-12.54L207.04-12.54L207.04-2.30L207.04-2.30Q204.80-1.09 200.48-0.10L200.48-0.10L200.48-0.10Q196.16 0.90 191.10 0.90L191.10 0.90ZM187.39-22.53L194.82-22.53L194.82-23.30L194.82-23.30Q194.82-25.47 193.89-26.43L193.89-26.43L193.89-26.43Q192.96-27.39 191.10-27.39L191.10-27.39L191.10-27.39Q189.25-27.39 188.32-26.40L188.32-26.40L188.32-26.40Q187.39-25.41 187.39-23.30L187.39-23.30L187.39-22.53ZM271.87-10.50L274.69-10.50L274.69 0L254.46 0L254.46-10.50L257.15-10.50L257.15-20.99L257.15-20.99Q257.15-23.10 256.26-24.10L256.26-24.10L256.26-24.10Q255.36-25.09 253.57-25.09L253.57-25.09L253.57-25.09Q249.73-25.09 249.73-20.99L249.73-20.99L249.73-10.50L252.42-10.50L252.42 0L232.32 0L232.32-10.50L235.01-10.50L235.01-20.99L235.01-20.99Q235.01-23.10 234.11-24.10L234.11-24.10L234.11-24.10Q233.22-25.09 231.42-25.09L231.42-25.09L231.42-25.09Q227.58-25.09 227.58-20.99L227.58-20.99L227.58-10.50L230.27-10.50L230.27 0L210.05 0L210.05-10.50L212.86-10.50L212.86-25.09L210.05-25.09L210.05-35.58L227.58-35.58L227.58-30.59L227.58-30.59Q232.19-36.48 239.10-36.48L239.10-36.48L239.10-36.48Q243.01-36.48 245.47-34.66L245.47-34.66L245.47-34.66Q247.94-32.83 248.96-29.50L248.96-29.50L248.96-29.50Q251.26-32.83 254.24-34.62L254.24-34.62L254.24-34.62Q257.22-36.42 261.25-36.42L261.25-36.42L261.25-36.42Q266.56-36.42 269.22-33.09L269.22-33.09L269.22-33.09Q271.87-29.76 271.87-23.94L271.87-23.94L271.87-10.50Z" fill="#444"></path></g></g><style>text {
  font-size: 64px;
  font-family: Arial Black;
  dominant-baseline: central;
  text-anchor: middle;
}</style></svg>